<svg width="289" height="73" viewBox="0 0 289 73" fill="none" xmlns="http://www.w3.org/2000/svg">
<g clip-path="url(#clip0_22134_86611)">
<path d="M50.5448 8C48.7744 8 47.2447 11.7813 47.2447 17.6079C44.9931 17.0751 42.5869 16.7829 39.9915 16.7829C37.3962 16.7829 34.9899 17.0751 32.7383 17.6079C32.7383 11.7813 31.1914 8 29.4383 8C22.5804 8 12.6631 37.2363 12.6631 42.7535C12.6631 48.2708 23.6804 64.3412 39.9915 64.3412C56.3026 64.3412 67.3199 48.2708 67.3199 42.7535C67.3199 37.2363 57.4198 8 50.5448 8ZM53.4838 36.1534L39.4243 50.213C38.3759 51.2614 36.6571 51.2614 35.6087 50.213L26.5164 41.1207C25.8632 40.4675 25.8632 39.3847 26.5164 38.7316L28.6304 36.6175C29.2836 35.9644 30.3664 35.9644 31.0195 36.6175L37.5337 43.1316L49.015 31.6503C49.6682 30.9971 50.751 30.9971 51.4041 31.6503L53.5182 33.7643C54.1714 34.4175 54.1714 35.5003 53.5182 36.1534H53.4838Z" fill="url(#paint0_linear_22134_86611)"/>
</g>
<mask id="path-2-outside-1_22134_86611" maskUnits="userSpaceOnUse" x="80.3372" y="15.6003" width="197" height="39" fill="black">
<rect fill="white" x="80.3372" y="15.6003" width="197" height="39"/>
<path d="M201.172 23.2042C201.952 23.9223 202.92 24.2814 204.076 24.2814C205.231 24.2814 206.183 23.9223 206.933 23.2042C207.713 22.4548 208.103 21.5337 208.103 20.4409C208.103 19.348 207.713 18.4425 206.933 17.7244C206.183 16.975 205.231 16.6003 204.076 16.6003C202.92 16.6003 201.952 16.975 201.172 17.7244C200.422 18.4425 200.048 19.348 200.048 20.4409C200.048 21.5337 200.422 22.4548 201.172 23.2042Z"/>
<path d="M207.307 53.3194V27.3725H200.75V53.3194H207.307Z"/>
<path d="M219.92 32.7586V45.3105C219.92 46.1848 220.123 46.8249 220.529 47.2308C220.966 47.6055 221.684 47.7928 222.683 47.7928H225.727V53.3194H221.606C216.079 53.3194 213.316 50.6342 213.316 45.2637V32.7586H210.225V27.3725H213.316V20.9561H219.92V27.3725H225.727V32.7586H219.92Z"/>
<path fill-rule="evenodd" clip-rule="evenodd" d="M262.667 53.7409C260.169 53.7409 257.921 53.1945 255.922 52.1017C253.924 50.9776 252.347 49.4008 251.192 47.3713C250.068 45.3417 249.506 43 249.506 40.3459C249.506 37.6919 250.083 35.3502 251.239 33.3206C252.425 31.2911 254.033 29.7299 256.063 28.6371C258.092 27.513 260.356 26.951 262.854 26.951C265.352 26.951 267.615 27.513 269.645 28.6371C271.675 29.7299 273.267 31.2911 274.422 33.3206C275.609 35.3502 276.202 37.6919 276.202 40.3459C276.202 43 275.593 45.3417 274.375 47.3713C273.189 49.4008 271.565 50.9776 269.505 52.1017C267.475 53.1945 265.196 53.7409 262.667 53.7409ZM262.667 48.027C263.853 48.027 264.961 47.746 265.992 47.1839C267.053 46.5907 267.896 45.7164 268.521 44.5611C269.145 43.4059 269.458 42.0008 269.458 40.3459C269.458 37.8793 268.802 35.9902 267.491 34.6788C266.21 33.3362 264.634 32.6649 262.76 32.6649C260.887 32.6649 259.31 33.3362 258.03 34.6788C256.781 35.9902 256.156 37.8793 256.156 40.3459C256.156 42.8126 256.765 44.7173 257.983 46.0599C259.232 47.3713 260.793 48.027 262.667 48.027Z"/>
<path d="M185.396 26.9979C188.581 26.9979 191.142 27.9814 193.077 29.9485C195.045 31.8844 196.028 34.6008 196.028 38.0979V53.3194H189.471V38.9878C189.471 36.9582 188.956 35.4126 187.926 34.351C186.895 33.2582 185.49 32.7118 183.71 32.7118C181.931 32.7118 180.51 33.2582 179.448 34.351C178.418 35.4126 177.903 36.9582 177.903 38.9878V53.3194H171.346V38.9878C171.346 36.9582 170.831 35.4126 169.8 34.351C168.77 33.2582 167.365 32.7118 165.585 32.7118C163.774 32.7118 162.338 33.2582 161.276 34.351C160.246 35.4126 159.731 36.9582 159.731 38.9878V53.3194H153.174V26.9979H159.731V30.5105C160.574 29.4177 161.651 28.559 162.962 27.9346C164.305 27.3101 165.772 26.9979 167.365 26.9979C169.394 26.9979 171.205 27.435 172.798 28.3093C174.39 29.1523 175.623 30.37 176.498 31.9624C177.341 30.4637 178.558 29.2616 180.151 28.3561C181.774 27.4506 183.523 26.9979 185.396 26.9979Z"/>
<path d="M145.573 28.1688C144.231 28.9493 143.138 30.0266 142.295 31.4004V27.3725H135.738V53.3194H142.295V40.3928C142.295 37.9886 142.81 36.3025 143.841 35.3346C144.902 34.3667 146.463 33.8827 148.524 33.8827H150.257V26.9979C148.509 26.9979 146.947 27.3882 145.573 28.1688Z"/>
<path fill-rule="evenodd" clip-rule="evenodd" d="M132.452 39.7839C132.452 40.7206 132.39 41.5637 132.265 42.313H113.296C113.453 44.1865 114.108 45.654 115.263 46.7156C116.419 47.7772 117.839 48.308 119.526 48.308C121.961 48.308 123.694 47.262 124.724 45.17H131.796C131.047 47.6679 129.611 49.7287 127.488 51.3523C125.364 52.9447 122.757 53.7409 119.666 53.7409C117.168 53.7409 114.92 53.1945 112.922 52.1017C110.955 50.9776 109.409 49.4008 108.285 47.3713C107.192 45.3417 106.646 43 106.646 40.3459C106.646 37.6607 107.192 35.3033 108.285 33.2738C109.378 31.2442 110.908 29.6831 112.875 28.5902C114.842 27.4974 117.106 26.951 119.666 26.951C122.133 26.951 124.334 27.4818 126.27 28.5434C128.237 29.605 129.751 31.1193 130.813 33.0864C131.906 35.0223 132.452 37.2548 132.452 39.7839ZM125.661 37.9105C125.63 36.2244 125.021 34.8818 123.834 33.8826C122.648 32.8523 121.196 32.3371 119.479 32.3371C117.855 32.3371 116.481 32.8367 115.357 33.8358C114.264 34.8037 113.593 36.162 113.343 37.9105H125.661Z"/>
<path fill-rule="evenodd" clip-rule="evenodd" d="M103.912 35.6624C104.755 34.1325 105.176 32.4932 105.176 30.7447C105.176 28.8088 104.724 27.0759 103.818 25.546C102.944 24.016 101.617 22.8139 99.8372 21.9396C98.0574 21.0654 95.903 20.6282 93.3739 20.6282H81.3372V53.3194H87.8941V40.7675H93.3739C96.0591 40.7675 98.276 40.2992 100.025 39.3624C101.804 38.4257 103.1 37.1924 103.912 35.6624ZM97.1207 34.2574C96.2465 35.0692 94.9038 35.4751 93.0929 35.4751H87.8941V25.9675H93.0929C96.6524 25.9675 98.4321 27.5599 98.4321 30.7447C98.4321 32.2434 97.995 33.4143 97.1207 34.2574Z"/>
<path d="M242.935 24.2814C241.78 24.2814 240.812 23.9223 240.031 23.2042C239.282 22.4548 238.907 21.5337 238.907 20.4409C238.907 19.348 239.282 18.4425 240.031 17.7244C240.812 16.975 241.78 16.6003 242.935 16.6003C244.09 16.6003 245.043 16.975 245.792 17.7244C246.573 18.4425 246.963 19.348 246.963 20.4409C246.963 21.5337 246.573 22.4548 245.792 23.2042C245.043 23.9223 244.09 24.2814 242.935 24.2814Z"/>
<path d="M246.167 53.3194V27.3725H239.61V53.3194H246.167Z"/>
<path d="M232.668 53.7409C231.513 53.7409 230.545 53.3818 229.765 52.6637C229.015 51.9143 228.641 50.9932 228.641 49.9004C228.641 48.8076 229.015 47.9021 229.765 47.1839C230.545 46.4346 231.513 46.0599 232.668 46.0599C233.824 46.0599 234.776 46.4346 235.525 47.1839C236.306 47.9021 236.696 48.8076 236.696 49.9004C236.696 50.9932 236.306 51.9143 235.525 52.6637C234.776 53.3818 233.824 53.7409 232.668 53.7409Z"/>
</mask>
<path d="M201.172 23.2042C201.952 23.9223 202.92 24.2814 204.076 24.2814C205.231 24.2814 206.183 23.9223 206.933 23.2042C207.713 22.4548 208.103 21.5337 208.103 20.4409C208.103 19.348 207.713 18.4425 206.933 17.7244C206.183 16.975 205.231 16.6003 204.076 16.6003C202.92 16.6003 201.952 16.975 201.172 17.7244C200.422 18.4425 200.048 19.348 200.048 20.4409C200.048 21.5337 200.422 22.4548 201.172 23.2042Z" fill="#2F1708"/>
<path d="M207.307 53.3194V27.3725H200.75V53.3194H207.307Z" fill="#2F1708"/>
<path d="M219.92 32.7586V45.3105C219.92 46.1848 220.123 46.8249 220.529 47.2308C220.966 47.6055 221.684 47.7928 222.683 47.7928H225.727V53.3194H221.606C216.079 53.3194 213.316 50.6342 213.316 45.2637V32.7586H210.225V27.3725H213.316V20.9561H219.92V27.3725H225.727V32.7586H219.92Z" fill="#2F1708"/>
<path fill-rule="evenodd" clip-rule="evenodd" d="M262.667 53.7409C260.169 53.7409 257.921 53.1945 255.922 52.1017C253.924 50.9776 252.347 49.4008 251.192 47.3713C250.068 45.3417 249.506 43 249.506 40.3459C249.506 37.6919 250.083 35.3502 251.239 33.3206C252.425 31.2911 254.033 29.7299 256.063 28.6371C258.092 27.513 260.356 26.951 262.854 26.951C265.352 26.951 267.615 27.513 269.645 28.6371C271.675 29.7299 273.267 31.2911 274.422 33.3206C275.609 35.3502 276.202 37.6919 276.202 40.3459C276.202 43 275.593 45.3417 274.375 47.3713C273.189 49.4008 271.565 50.9776 269.505 52.1017C267.475 53.1945 265.196 53.7409 262.667 53.7409ZM262.667 48.027C263.853 48.027 264.961 47.746 265.992 47.1839C267.053 46.5907 267.896 45.7164 268.521 44.5611C269.145 43.4059 269.458 42.0008 269.458 40.3459C269.458 37.8793 268.802 35.9902 267.491 34.6788C266.21 33.3362 264.634 32.6649 262.76 32.6649C260.887 32.6649 259.31 33.3362 258.03 34.6788C256.781 35.9902 256.156 37.8793 256.156 40.3459C256.156 42.8126 256.765 44.7173 257.983 46.0599C259.232 47.3713 260.793 48.027 262.667 48.027Z" fill="#2F1708"/>
<path d="M185.396 26.9979C188.581 26.9979 191.142 27.9814 193.077 29.9485C195.045 31.8844 196.028 34.6008 196.028 38.0979V53.3194H189.471V38.9878C189.471 36.9582 188.956 35.4126 187.926 34.351C186.895 33.2582 185.49 32.7118 183.71 32.7118C181.931 32.7118 180.51 33.2582 179.448 34.351C178.418 35.4126 177.903 36.9582 177.903 38.9878V53.3194H171.346V38.9878C171.346 36.9582 170.831 35.4126 169.8 34.351C168.77 33.2582 167.365 32.7118 165.585 32.7118C163.774 32.7118 162.338 33.2582 161.276 34.351C160.246 35.4126 159.731 36.9582 159.731 38.9878V53.3194H153.174V26.9979H159.731V30.5105C160.574 29.4177 161.651 28.559 162.962 27.9346C164.305 27.3101 165.772 26.9979 167.365 26.9979C169.394 26.9979 171.205 27.435 172.798 28.3093C174.39 29.1523 175.623 30.37 176.498 31.9624C177.341 30.4637 178.558 29.2616 180.151 28.3561C181.774 27.4506 183.523 26.9979 185.396 26.9979Z" fill="#2F1708"/>
<path d="M145.573 28.1688C144.231 28.9493 143.138 30.0266 142.295 31.4004V27.3725H135.738V53.3194H142.295V40.3928C142.295 37.9886 142.81 36.3025 143.841 35.3346C144.902 34.3667 146.463 33.8827 148.524 33.8827H150.257V26.9979C148.509 26.9979 146.947 27.3882 145.573 28.1688Z" fill="#2F1708"/>
<path fill-rule="evenodd" clip-rule="evenodd" d="M132.452 39.7839C132.452 40.7206 132.39 41.5637 132.265 42.313H113.296C113.453 44.1865 114.108 45.654 115.263 46.7156C116.419 47.7772 117.839 48.308 119.526 48.308C121.961 48.308 123.694 47.262 124.724 45.17H131.796C131.047 47.6679 129.611 49.7287 127.488 51.3523C125.364 52.9447 122.757 53.7409 119.666 53.7409C117.168 53.7409 114.92 53.1945 112.922 52.1017C110.955 50.9776 109.409 49.4008 108.285 47.3713C107.192 45.3417 106.646 43 106.646 40.3459C106.646 37.6607 107.192 35.3033 108.285 33.2738C109.378 31.2442 110.908 29.6831 112.875 28.5902C114.842 27.4974 117.106 26.951 119.666 26.951C122.133 26.951 124.334 27.4818 126.27 28.5434C128.237 29.605 129.751 31.1193 130.813 33.0864C131.906 35.0223 132.452 37.2548 132.452 39.7839ZM125.661 37.9105C125.63 36.2244 125.021 34.8818 123.834 33.8826C122.648 32.8523 121.196 32.3371 119.479 32.3371C117.855 32.3371 116.481 32.8367 115.357 33.8358C114.264 34.8037 113.593 36.162 113.343 37.9105H125.661Z" fill="#2F1708"/>
<path fill-rule="evenodd" clip-rule="evenodd" d="M103.912 35.6624C104.755 34.1325 105.176 32.4932 105.176 30.7447C105.176 28.8088 104.724 27.0759 103.818 25.546C102.944 24.016 101.617 22.8139 99.8372 21.9396C98.0574 21.0654 95.903 20.6282 93.3739 20.6282H81.3372V53.3194H87.8941V40.7675H93.3739C96.0591 40.7675 98.276 40.2992 100.025 39.3624C101.804 38.4257 103.1 37.1924 103.912 35.6624ZM97.1207 34.2574C96.2465 35.0692 94.9038 35.4751 93.0929 35.4751H87.8941V25.9675H93.0929C96.6524 25.9675 98.4321 27.5599 98.4321 30.7447C98.4321 32.2434 97.995 33.4143 97.1207 34.2574Z" fill="#2F1708"/>
<path d="M242.935 24.2814C241.78 24.2814 240.812 23.9223 240.031 23.2042C239.282 22.4548 238.907 21.5337 238.907 20.4409C238.907 19.348 239.282 18.4425 240.031 17.7244C240.812 16.975 241.78 16.6003 242.935 16.6003C244.09 16.6003 245.043 16.975 245.792 17.7244C246.573 18.4425 246.963 19.348 246.963 20.4409C246.963 21.5337 246.573 22.4548 245.792 23.2042C245.043 23.9223 244.09 24.2814 242.935 24.2814Z" fill="#2F1708"/>
<path d="M246.167 53.3194V27.3725H239.61V53.3194H246.167Z" fill="#2F1708"/>
<path d="M232.668 53.7409C231.513 53.7409 230.545 53.3818 229.765 52.6637C229.015 51.9143 228.641 50.9932 228.641 49.9004C228.641 48.8076 229.015 47.9021 229.765 47.1839C230.545 46.4346 231.513 46.0599 232.668 46.0599C233.824 46.0599 234.776 46.4346 235.525 47.1839C236.306 47.9021 236.696 48.8076 236.696 49.9004C236.696 50.9932 236.306 51.9143 235.525 52.6637C234.776 53.3818 233.824 53.7409 232.668 53.7409Z" fill="#2F1708"/>
<path d="M201.172 23.2042C201.952 23.9223 202.92 24.2814 204.076 24.2814C205.231 24.2814 206.183 23.9223 206.933 23.2042C207.713 22.4548 208.103 21.5337 208.103 20.4409C208.103 19.348 207.713 18.4425 206.933 17.7244C206.183 16.975 205.231 16.6003 204.076 16.6003C202.92 16.6003 201.952 16.975 201.172 17.7244C200.422 18.4425 200.048 19.348 200.048 20.4409C200.048 21.5337 200.422 22.4548 201.172 23.2042Z" stroke="#2F1708" stroke-width="0.4" mask="url(#path-2-outside-1_22134_86611)"/>
<path d="M207.307 53.3194V27.3725H200.75V53.3194H207.307Z" stroke="#2F1708" stroke-width="0.4" mask="url(#path-2-outside-1_22134_86611)"/>
<path d="M219.92 32.7586V45.3105C219.92 46.1848 220.123 46.8249 220.529 47.2308C220.966 47.6055 221.684 47.7928 222.683 47.7928H225.727V53.3194H221.606C216.079 53.3194 213.316 50.6342 213.316 45.2637V32.7586H210.225V27.3725H213.316V20.9561H219.92V27.3725H225.727V32.7586H219.92Z" stroke="#2F1708" stroke-width="0.4" mask="url(#path-2-outside-1_22134_86611)"/>
<path fill-rule="evenodd" clip-rule="evenodd" d="M262.667 53.7409C260.169 53.7409 257.921 53.1945 255.922 52.1017C253.924 50.9776 252.347 49.4008 251.192 47.3713C250.068 45.3417 249.506 43 249.506 40.3459C249.506 37.6919 250.083 35.3502 251.239 33.3206C252.425 31.2911 254.033 29.7299 256.063 28.6371C258.092 27.513 260.356 26.951 262.854 26.951C265.352 26.951 267.615 27.513 269.645 28.6371C271.675 29.7299 273.267 31.2911 274.422 33.3206C275.609 35.3502 276.202 37.6919 276.202 40.3459C276.202 43 275.593 45.3417 274.375 47.3713C273.189 49.4008 271.565 50.9776 269.505 52.1017C267.475 53.1945 265.196 53.7409 262.667 53.7409ZM262.667 48.027C263.853 48.027 264.961 47.746 265.992 47.1839C267.053 46.5907 267.896 45.7164 268.521 44.5611C269.145 43.4059 269.458 42.0008 269.458 40.3459C269.458 37.8793 268.802 35.9902 267.491 34.6788C266.21 33.3362 264.634 32.6649 262.76 32.6649C260.887 32.6649 259.31 33.3362 258.03 34.6788C256.781 35.9902 256.156 37.8793 256.156 40.3459C256.156 42.8126 256.765 44.7173 257.983 46.0599C259.232 47.3713 260.793 48.027 262.667 48.027Z" stroke="#2F1708" stroke-width="0.4" mask="url(#path-2-outside-1_22134_86611)"/>
<path d="M185.396 26.9979C188.581 26.9979 191.142 27.9814 193.077 29.9485C195.045 31.8844 196.028 34.6008 196.028 38.0979V53.3194H189.471V38.9878C189.471 36.9582 188.956 35.4126 187.926 34.351C186.895 33.2582 185.49 32.7118 183.71 32.7118C181.931 32.7118 180.51 33.2582 179.448 34.351C178.418 35.4126 177.903 36.9582 177.903 38.9878V53.3194H171.346V38.9878C171.346 36.9582 170.831 35.4126 169.8 34.351C168.77 33.2582 167.365 32.7118 165.585 32.7118C163.774 32.7118 162.338 33.2582 161.276 34.351C160.246 35.4126 159.731 36.9582 159.731 38.9878V53.3194H153.174V26.9979H159.731V30.5105C160.574 29.4177 161.651 28.559 162.962 27.9346C164.305 27.3101 165.772 26.9979 167.365 26.9979C169.394 26.9979 171.205 27.435 172.798 28.3093C174.39 29.1523 175.623 30.37 176.498 31.9624C177.341 30.4637 178.558 29.2616 180.151 28.3561C181.774 27.4506 183.523 26.9979 185.396 26.9979Z" stroke="#2F1708" stroke-width="0.4" mask="url(#path-2-outside-1_22134_86611)"/>
<path d="M145.573 28.1688C144.231 28.9493 143.138 30.0266 142.295 31.4004V27.3725H135.738V53.3194H142.295V40.3928C142.295 37.9886 142.81 36.3025 143.841 35.3346C144.902 34.3667 146.463 33.8827 148.524 33.8827H150.257V26.9979C148.509 26.9979 146.947 27.3882 145.573 28.1688Z" stroke="#2F1708" stroke-width="0.4" mask="url(#path-2-outside-1_22134_86611)"/>
<path fill-rule="evenodd" clip-rule="evenodd" d="M132.452 39.7839C132.452 40.7206 132.39 41.5637 132.265 42.313H113.296C113.453 44.1865 114.108 45.654 115.263 46.7156C116.419 47.7772 117.839 48.308 119.526 48.308C121.961 48.308 123.694 47.262 124.724 45.17H131.796C131.047 47.6679 129.611 49.7287 127.488 51.3523C125.364 52.9447 122.757 53.7409 119.666 53.7409C117.168 53.7409 114.92 53.1945 112.922 52.1017C110.955 50.9776 109.409 49.4008 108.285 47.3713C107.192 45.3417 106.646 43 106.646 40.3459C106.646 37.6607 107.192 35.3033 108.285 33.2738C109.378 31.2442 110.908 29.6831 112.875 28.5902C114.842 27.4974 117.106 26.951 119.666 26.951C122.133 26.951 124.334 27.4818 126.27 28.5434C128.237 29.605 129.751 31.1193 130.813 33.0864C131.906 35.0223 132.452 37.2548 132.452 39.7839ZM125.661 37.9105C125.63 36.2244 125.021 34.8818 123.834 33.8826C122.648 32.8523 121.196 32.3371 119.479 32.3371C117.855 32.3371 116.481 32.8367 115.357 33.8358C114.264 34.8037 113.593 36.162 113.343 37.9105H125.661Z" stroke="#2F1708" stroke-width="0.4" mask="url(#path-2-outside-1_22134_86611)"/>
<path fill-rule="evenodd" clip-rule="evenodd" d="M103.912 35.6624C104.755 34.1325 105.176 32.4932 105.176 30.7447C105.176 28.8088 104.724 27.0759 103.818 25.546C102.944 24.016 101.617 22.8139 99.8372 21.9396C98.0574 21.0654 95.903 20.6282 93.3739 20.6282H81.3372V53.3194H87.8941V40.7675H93.3739C96.0591 40.7675 98.276 40.2992 100.025 39.3624C101.804 38.4257 103.1 37.1924 103.912 35.6624ZM97.1207 34.2574C96.2465 35.0692 94.9038 35.4751 93.0929 35.4751H87.8941V25.9675H93.0929C96.6524 25.9675 98.4321 27.5599 98.4321 30.7447C98.4321 32.2434 97.995 33.4143 97.1207 34.2574Z" stroke="#2F1708" stroke-width="0.4" mask="url(#path-2-outside-1_22134_86611)"/>
<path d="M242.935 24.2814C241.78 24.2814 240.812 23.9223 240.031 23.2042C239.282 22.4548 238.907 21.5337 238.907 20.4409C238.907 19.348 239.282 18.4425 240.031 17.7244C240.812 16.975 241.78 16.6003 242.935 16.6003C244.09 16.6003 245.043 16.975 245.792 17.7244C246.573 18.4425 246.963 19.348 246.963 20.4409C246.963 21.5337 246.573 22.4548 245.792 23.2042C245.043 23.9223 244.09 24.2814 242.935 24.2814Z" stroke="#2F1708" stroke-width="0.4" mask="url(#path-2-outside-1_22134_86611)"/>
<path d="M246.167 53.3194V27.3725H239.61V53.3194H246.167Z" stroke="#2F1708" stroke-width="0.4" mask="url(#path-2-outside-1_22134_86611)"/>
<path d="M232.668 53.7409C231.513 53.7409 230.545 53.3818 229.765 52.6637C229.015 51.9143 228.641 50.9932 228.641 49.9004C228.641 48.8076 229.015 47.9021 229.765 47.1839C230.545 46.4346 231.513 46.0599 232.668 46.0599C233.824 46.0599 234.776 46.4346 235.525 47.1839C236.306 47.9021 236.696 48.8076 236.696 49.9004C236.696 50.9932 236.306 51.9143 235.525 52.6637C234.776 53.3818 233.824 53.7409 232.668 53.7409Z" stroke="#2F1708" stroke-width="0.4" mask="url(#path-2-outside-1_22134_86611)"/>
<defs>
<linearGradient id="paint0_linear_22134_86611" x1="39.9915" y1="16.5478" x2="39.9915" y2="64.3412" gradientUnits="userSpaceOnUse">
<stop stop-color="#FFB171"/>
<stop offset="1" stop-color="#DA8BFF"/>
</linearGradient>
<clipPath id="clip0_22134_86611">
<rect width="54.674" height="56.3412" fill="white" transform="translate(12.6631 8)"/>
</clipPath>
</defs>
</svg>
